<svg width="2820" height="2870" viewBox="0 0 2820 2870" fill="none" xmlns="http://www.w3.org/2000/svg">
<rect width="2820" height="2870" rx="80" fill="url(#paint0_linear_737_157)"/>
<g clip-path="url(#clip0_737_157)">
<path d="M1559.6 1136L1260.4 1435.5V1735H1559.6V1435.5H1858.8V1136H1559.6Z" fill="white"/>
<path d="M961.2 1136L662 1435.5V1735H961.2V1435.5H1260.4V1136H961.2Z" fill="white"/>
<path fill-rule="evenodd" clip-rule="evenodd" d="M1858.8 1734.74V1435.24H2158V1734.74H1858.8ZM1974.08 1576.36V1553.97H2025.46V1526.34H1946.48V1643.78H1974.08V1603.99H2015.37V1576.36H1974.08ZM2042.5 1576.44H2070V1643.88H2042.5V1576.44ZM2070 1526.89H2042.5V1554.42H2070V1526.89Z" fill="white"/>
<path d="M2017.67 1242V1328.85H1997.39V1288.64H1995.32L1976.44 1322.99H1958.23L1939.35 1288.64H1937.28V1328.85H1917V1242H1937.28L1966.3 1295.83H1968.37L1997.39 1242H2017.67Z" fill="white"/>
<path d="M2068.66 1242C2093.55 1242 2105.57 1257.23 2106.32 1275.11H2086.03C2083.88 1265.18 2079.56 1262.44 2068.66 1262.44C2056.74 1262.44 2049.41 1264.9 2049.41 1285.43C2049.41 1305.96 2056.74 1308.42 2068.66 1308.42C2079.56 1308.42 2083.88 1305.77 2086.03 1295.74H2106.32C2105.57 1313.62 2093.55 1328.85 2068.66 1328.85C2039.74 1328.85 2029.13 1307.09 2029.13 1285.43C2029.13 1263.76 2039.74 1242 2068.66 1242Z" fill="white"/>
<path d="M2140.97 1281.93H2157.41V1294.23H2120.22V1281.93L2134.21 1271.71C2141.72 1266.32 2146.04 1263.38 2146.04 1259.03C2146.04 1256.38 2145.57 1254.3 2139.19 1254.3C2132.8 1254.3 2132.43 1256.57 2132.43 1259.69H2120.22C2120.22 1249.95 2124.54 1242.09 2139.09 1242.09C2153.65 1242.09 2158.16 1250.04 2158.16 1258.94C2158.16 1265.75 2156.37 1270.29 2148.86 1276.06L2140.88 1281.93H2140.97Z" fill="white"/>
</g>
<defs>
<linearGradient id="paint0_linear_737_157" x1="0" y1="0" x2="2869.56" y2="2819.56" gradientUnits="userSpaceOnUse">
<stop stop-color="#7FFFD4"/>
<stop offset="0.489583" stop-color="#20B2AA"/>
<stop offset="1" stop-color="#0098BD"/>
</linearGradient>
<clipPath id="clip0_737_157">
<rect width="1496" height="599" fill="white" transform="translate(662 1136)"/>
</clipPath>
</defs>
</svg>
